<?xml version="1.0" encoding="utf-8"?>
<!-- Generator: Adobe Illustrator 23.0.0, SVG Export Plug-In . SVG Version: 6.00 Build 0)  -->
<svg version="1.1"
	 id="svg3476" inkscape:version="0.91 r13725" sodipodi:docname="CSS3.svg" xmlns:cc="http://creativecommons.org/ns#" xmlns:dc="http://purl.org/dc/elements/1.1/" xmlns:inkscape="http://www.inkscape.org/namespaces/inkscape" xmlns:rdf="http://www.w3.org/1999/02/22-rdf-syntax-ns#" xmlns:sodipodi="http://sodipodi.sourceforge.net/DTD/sodipodi-0.dtd" xmlns:svg="http://www.w3.org/2000/svg"
	 xmlns="http://www.w3.org/2000/svg" xmlns:xlink="http://www.w3.org/1999/xlink" x="0px" y="0px" viewBox="0 0 329.1 329.1"
	 style="enable-background:new 0 0 329.1 329.1;" xml:space="preserve">
<style type="text/css">
	.st0{fill:#264DE4;}
	.st1{fill:#2965F1;}
	.st2{fill:#EBEBEB;}
	.st3{fill:#FFFFFF;}
</style>
<sodipodi:namedview  bordercolor="#666666" borderopacity="1.0" fit-margin-bottom="0" fit-margin-left="0" fit-margin-right="0" fit-margin-top="0" id="base" inkscape:current-layer="layer1" inkscape:cx="181.367" inkscape:cy="256" inkscape:document-units="px" inkscape:pageopacity="0.0" inkscape:pageshadow="2" inkscape:window-height="704" inkscape:window-maximized="1" inkscape:window-width="1366" inkscape:window-x="0" inkscape:window-y="27" inkscape:zoom="0.35" pagecolor="#ffffff" showgrid="false">
	</sodipodi:namedview>
<polygon id="polygon2989" class="st0" points="309.6,0 283.2,296.2 164.4,329.1 45.9,296.2 19.5,0 "/>
<polygon id="polygon2991" class="st1" points="260.6,277.3 283.2,24.2 164.6,24.2 164.6,303.9 "/>
<polygon id="polygon2993" class="st2" points="80,134.1 83.3,170.4 164.6,170.4 164.6,134.1 "/>
<polygon id="polygon2995" class="st2" points="164.6,60.5 164.4,60.5 73.5,60.5 76.8,96.9 164.6,96.9 "/>
<polygon id="polygon2997" class="st2" points="164.6,266.2 164.6,228.4 164.4,228.5 123.9,217.5 121.3,188.6 101.7,188.6 
	84.9,188.6 90,245.6 164.4,266.3 "/>
<polygon id="polygon3005" class="st3" points="209.2,170.4 204.9,217.5 164.4,228.5 164.4,266.3 238.9,245.6 239.4,239.5 248,143.8 
	248.9,134.1 255.4,60.5 164.4,60.5 164.4,96.9 215.6,96.9 212.3,134.1 164.4,134.1 164.4,170.4 "/>
</svg>
