<svg viewBox="0 0 18 17" fill="none" xmlns="http://www.w3.org/2000/svg">
<path fill-rule="evenodd" clip-rule="evenodd" d="M8.72216 5.5845e-05C6.65133 -0.00214147 4.64743 0.733303 3.06966 2.07455C1.49189 3.4158 0.443421 5.27516 0.112195 7.31933C-0.219031 9.36349 0.188646 11.4588 1.26215 13.2296C2.33565 15.0005 4.00478 16.3311 5.97033 16.9829C6.40598 17.0628 6.56572 16.7942 6.56572 16.5618C6.56572 16.3295 6.56572 15.8357 6.56572 15.1097C4.14063 15.6324 3.66142 13.9407 3.66142 13.9407C3.5006 13.414 3.15849 12.9613 2.69574 12.6628C1.90432 12.1255 2.75382 12.1328 2.75382 12.1328C3.02995 12.1725 3.29353 12.2741 3.52487 12.43C3.75621 12.5859 3.94933 12.7921 4.0898 13.0331C4.20801 13.2476 4.36746 13.4367 4.55899 13.5894C4.75052 13.7422 4.97035 13.8555 5.20583 13.923C5.44132 13.9905 5.68783 14.0107 5.93117 13.9826C6.17452 13.9545 6.40991 13.8786 6.6238 13.7592C6.66383 13.3165 6.85932 12.9024 7.17562 12.5902C5.24426 12.3724 3.20399 11.6245 3.20399 8.28456C3.19165 7.41835 3.51418 6.58081 4.10432 5.94661C3.81978 5.19779 3.83538 4.36802 4.14789 3.63043C4.14789 3.63043 4.87396 3.39082 6.54393 4.5235C7.96896 4.12656 9.47536 4.12656 10.9004 4.5235C12.5703 3.3763 13.2964 3.63043 13.2964 3.63043C13.6192 4.35816 13.6504 5.18203 13.3836 5.93208C13.9711 6.56742 14.2909 7.40483 14.2766 8.27004C14.2766 11.6172 12.2436 12.3578 10.305 12.5684C10.5118 12.7787 10.6718 13.0305 10.7744 13.307C10.877 13.5836 10.9199 13.8787 10.9004 14.173C10.9004 15.3347 10.9004 16.2714 10.9004 16.5618C10.9004 16.8522 11.0529 17.0628 11.4958 16.9829C13.4631 16.3305 15.1335 14.9981 16.2069 13.225C17.2803 11.4519 17.6864 9.35415 17.3523 7.30853C17.0182 5.26291 15.9658 3.40339 14.3841 2.06388C12.8023 0.72438 10.7949 -0.0073618 8.72216 5.5845e-05Z" fill="#A5A093"/>
</svg>
