<?xml version="1.0" encoding="utf-8"?>
<!-- Generator: Adobe Illustrator 23.0.0, SVG Export Plug-In . SVG Version: 6.00 Build 0)  -->
<svg version="1.1" id="Calque_1" xmlns="http://www.w3.org/2000/svg" xmlns:xlink="http://www.w3.org/1999/xlink" x="0px" y="0px"
	 viewBox="0 0 17.5 17" style="enable-background:new 0 0 17.5 17;" xml:space="preserve">
<path class="st0" d="M8.7,0C6.7,0,4.6,0.7,3.1,2.1c-1.6,1.3-2.6,3.2-3,5.2c-0.3,2,0.1,4.1,1.1,5.9C2.3,15,4,16.3,6,17
	c0.4,0.1,0.6-0.2,0.6-0.4c0-0.2,0-0.7,0-1.5c-2.4,0.5-2.9-1.2-2.9-1.2c-0.2-0.5-0.5-1-1-1.3c-0.8-0.5,0.1-0.5,0.1-0.5
	c0.3,0,0.5,0.1,0.8,0.3c0.2,0.2,0.4,0.4,0.6,0.6c0.1,0.2,0.3,0.4,0.5,0.6c0.2,0.2,0.4,0.3,0.6,0.3C5.4,14,5.7,14,5.9,14
	c0.2,0,0.5-0.1,0.7-0.2c0-0.4,0.2-0.9,0.6-1.2c-1.9-0.2-4-1-4-4.3c0-0.9,0.3-1.7,0.9-2.3c-0.3-0.7-0.3-1.6,0-2.3
	c0,0,0.7-0.2,2.4,0.9c1.4-0.4,2.9-0.4,4.4,0c1.7-1.1,2.4-0.9,2.4-0.9c0.3,0.7,0.4,1.6,0.1,2.3c0.6,0.6,0.9,1.5,0.9,2.3
	c0,3.3-2,4.1-4,4.3c0.2,0.2,0.4,0.5,0.5,0.7c0.1,0.3,0.1,0.6,0.1,0.9c0,1.2,0,2.1,0,2.4s0.2,0.5,0.6,0.4c2-0.7,3.6-2,4.7-3.8
	s1.5-3.9,1.1-5.9c-0.3-2-1.4-3.9-3-5.2C12.8,0.7,10.8,0,8.7,0z"/>
</svg>
