<svg viewBox="0 0 14 14" fill="none" xmlns="http://www.w3.org/2000/svg">
<path d="M12.966 0H1.03444C0.463089 0 0 0.448933 0 1.00302V12.9965C0 13.5506 0.463244 14 1.03444 14H12.966C13.5374 14 13.9998 13.5504 13.9998 12.9965V1.00302C13.9998 0.449089 13.5374 0 12.966 0ZM4.24433 11.7189H2.12909V5.39809H4.24433V11.7189ZM3.18687 4.5346H3.17271C2.46338 4.5346 2.00356 4.04942 2.00356 3.44213C2.00356 2.82256 2.47691 2.3506 3.20024 2.3506C3.92373 2.3506 4.36878 2.8224 4.38278 3.44213C4.38278 4.04958 3.92389 4.5346 3.18687 4.5346ZM11.8694 11.7189H9.75473V8.33716C9.75473 7.4872 9.44829 6.90744 8.68358 6.90744C8.09853 6.90744 7.75133 7.29867 7.59889 7.6762C7.54227 7.81122 7.52842 7.99976 7.52842 8.18829V11.7188H5.41411C5.41411 11.7188 5.4418 5.99076 5.41411 5.39793H7.52858V6.29409C7.80936 5.86351 8.31087 5.24922 9.43398 5.24922C10.8257 5.24922 11.8694 6.15207 11.8694 8.09449V11.7189ZM7.51489 6.31416C7.51862 6.30825 7.5236 6.30109 7.52858 6.29424V6.31416H7.51489Z" fill="#A5A093"/>
</svg>
