<svg viewBox="0 0 17 17" fill="none" xmlns="http://www.w3.org/2000/svg">
<path fill-rule="evenodd" clip-rule="evenodd" d="M15.549 9.59896C15.7084 9.43955 15.9246 9.35 16.15 9.35C16.3754 9.35 16.5916 9.43955 16.751 9.59896C16.9104 9.75837 17 9.97457 17 10.2V12.75C16.9987 13.8768 16.5505 14.957 15.7537 15.7537C14.957 16.5505 13.8768 16.9987 12.75 17H4.25C3.12324 16.9987 2.04302 16.5505 1.24629 15.7537C0.44955 14.957 0.00134968 13.8768 0 12.75V4.25C0.00134968 3.12324 0.44955 2.04302 1.24629 1.24629C2.04302 0.44955 3.12324 0.00134968 4.25 0H6.8C7.02543 0 7.24163 0.0895533 7.40104 0.248959C7.56045 0.408365 7.65 0.624566 7.65 0.85C7.65 1.07543 7.56045 1.29163 7.40104 1.45104C7.24163 1.61045 7.02543 1.7 6.8 1.7H4.25C3.5737 1.7 2.9251 1.96866 2.44688 2.44688C1.96866 2.9251 1.7 3.5737 1.7 4.25V12.75C1.7 13.4263 1.96866 14.0749 2.44688 14.5531C2.9251 15.0313 3.5737 15.3 4.25 15.3H12.75C13.4263 15.3 14.0749 15.0313 14.5531 14.5531C15.0313 14.0749 15.3 13.4263 15.3 12.75V10.2C15.3 9.97457 15.3896 9.75837 15.549 9.59896ZM9.35001 0H16.15C16.3754 0 16.5917 0.0895533 16.7511 0.248959C16.9105 0.408365 17 0.624566 17 0.85V7.65C17 7.87543 16.9105 8.09163 16.7511 8.25104C16.5917 8.41045 16.3754 8.5 16.15 8.5H15.3C15.1882 8.50042 15.0775 8.47879 14.9741 8.43635C14.8706 8.39391 14.7766 8.33148 14.6974 8.25265L13.5252 7.07965L7.38056 11.8014C7.10831 11.9982 6.78147 12.1051 6.44557 12.1074C6.15944 12.1068 5.879 12.0274 5.63508 11.8779C5.39115 11.7283 5.19317 11.5144 5.06289 11.2597C4.93262 11.0049 4.8751 10.7192 4.89664 10.4339C4.91818 10.1486 5.01796 9.8747 5.18502 9.6424L9.92122 3.47395L8.74907 2.30095C8.58965 2.14158 8.50006 1.92542 8.50001 1.7V0.85C8.50001 0.624566 8.58957 0.408365 8.74897 0.248959C8.90838 0.0895533 9.12458 0 9.35001 0ZM14.201 5.34905L15.3 6.4481V1.7H10.5519L11.6493 2.79735C11.7951 2.9432 11.8829 3.13709 11.8963 3.34289C11.9098 3.54869 11.848 3.75236 11.7224 3.91595L7.21736 9.78095L13.0824 5.27595C13.246 5.15036 13.4496 5.08852 13.6554 5.10197C13.8612 5.11542 14.0551 5.20323 14.201 5.34905Z" fill="#A5A093"/>
</svg>
