<?xml version="1.0" encoding="utf-8"?>
<!-- Generator: Adobe Illustrator 23.0.0, SVG Export Plug-In . SVG Version: 6.00 Build 0)  -->
<svg version="1.1" id="Calque_1" xmlns="http://www.w3.org/2000/svg" xmlns:xlink="http://www.w3.org/1999/xlink" x="0px" y="0px"
	 viewBox="0 0 14 14" style="enable-background:new 0 0 14 14;" xml:space="preserve">
<path class="st0" d="M13,0H1C0.5,0,0,0.4,0,1v12c0,0.6,0.5,1,1,1H13c0.6,0,1-0.4,1-1V1C14,0.4,13.5,0,13,0z M4.2,11.7H2.1V5.4h2.1
	V11.7z M3.2,4.5L3.2,4.5C2.5,4.5,2,4,2,3.4c0-0.6,0.5-1.1,1.2-1.1c0.7,0,1.2,0.5,1.2,1.1C4.4,4,3.9,4.5,3.2,4.5z M11.9,11.7H9.8V8.3
	c0-0.8-0.3-1.4-1.1-1.4c-0.6,0-0.9,0.4-1.1,0.8C7.5,7.8,7.5,8,7.5,8.2v3.5H5.4c0,0,0-5.7,0-6.3h2.1v0.9c0.3-0.4,0.8-1,1.9-1
	c1.4,0,2.4,0.9,2.4,2.8V11.7z M7.5,6.3C7.5,6.3,7.5,6.3,7.5,6.3L7.5,6.3L7.5,6.3z"/>
</svg>
