<?xml version="1.0" encoding="utf-8"?>
<!-- Generator: Adobe Illustrator 23.0.0, SVG Export Plug-In . SVG Version: 6.00 Build 0)  -->
<svg version="1.1" id="Calque_1" xmlns="http://www.w3.org/2000/svg" xmlns:xlink="http://www.w3.org/1999/xlink" x="0px" y="0px"
	 viewBox="0 0 445.4 445.4" style="enable-background:new 0 0 445.4 445.4;" xml:space="preserve">
<style type="text/css">
	.st0{stroke:#000000;stroke-width:37.3953;}
	.st1{fill:#336791;}
	.st2{fill:none;stroke:#FFFFFF;stroke-width:12.4651;stroke-linecap:round;stroke-linejoin:round;}
	.st3{fill:none;stroke:#FFFFFF;stroke-width:12.4651;stroke-linecap:round;stroke-linejoin:bevel;}
	.st4{fill:#FFFFFF;stroke:#FFFFFF;stroke-width:4.155;}
	.st5{fill:#FFFFFF;stroke:#FFFFFF;stroke-width:2.0775;}
	.st6{fill:none;stroke:#FFFFFF;stroke-width:3;stroke-linecap:round;stroke-linejoin:round;}
</style>
<g id="orginal">
</g>
<g id="Layer_x0020_3">
	<path class="st0" d="M329.9,324.2c2.8-23.6,2-27.1,19.6-23.2l4.5,0.4c13.5,0.6,31.2-2.2,41.6-7c22.4-10.4,35.6-27.7,13.6-23.1
		c-50.3,10.4-53.8-6.7-53.8-6.7c53.1-78.8,75.3-178.8,56.1-203.3C359.2-5.5,268.7,26,267.2,26.9l-0.5,0.1
		c-9.9-2.1-21.1-3.3-33.6-3.5c-22.8-0.4-40,6-53.1,15.9c0,0-161.4-66.5-153.9,83.6c1.6,31.9,45.8,241.7,98.5,178.3
		c19.3-23.2,37.9-42.7,37.9-42.7c9.2,6.1,20.3,9.3,31.9,8.1l0.9-0.8c-0.3,2.9-0.2,5.7,0.4,9c-13.6,15.2-9.6,17.8-36.7,23.4
		c-27.5,5.7-11.3,15.7-0.8,18.4c12.8,3.2,42.3,7.7,62.3-20.2l-0.8,3.2c5.3,4.3,5,30.6,5.7,49.5c0.8,18.8,2,36.4,5.9,46.8
		c3.8,10.4,8.4,37,44,29.4C305,418.9,327.8,409.8,329.9,324.2"/>
	<path class="st1" d="M409,271.2c-50.3,10.4-53.8-6.7-53.8-6.7c53.1-78.8,75.3-178.8,56.2-203.3C359.2-5.5,268.7,26,267.2,26.9
		l-0.5,0.1c-9.9-2.1-21.1-3.3-33.6-3.5c-22.8-0.4-40,6-53.1,15.9c0,0-161.4-66.5-153.9,83.6c1.6,31.9,45.8,241.7,98.5,178.3
		c19.3-23.2,37.9-42.7,37.9-42.7c9.2,6.1,20.3,9.3,31.9,8.1l0.9-0.8c-0.3,2.9-0.2,5.7,0.4,9c-13.6,15.2-9.6,17.8-36.7,23.4
		c-27.5,5.7-11.3,15.7-0.8,18.4c12.8,3.2,42.3,7.7,62.3-20.2l-0.8,3.2c5.3,4.3,9.1,27.7,8.4,49c-0.6,21.3-1,35.9,3.1,47.3
		c4.2,11.4,8.4,37,44,29.4c29.8-6.4,45.3-22.9,47.4-50.6c1.5-19.6,5-16.7,5.2-34.3l2.8-8.3c3.2-26.6,0.5-35.2,18.9-31.2l4.5,0.4
		c13.5,0.6,31.2-2.2,41.6-7C417.8,284,431.1,266.7,409,271.2L409,271.2z"/>
	<path class="st2" d="M222.5,286.5c-1.4,49.5,0.3,99.4,5.2,111.5c4.8,12.1,15.2,35.7,50.9,28c29.8-6.4,40.7-18.8,45.4-46.1
		c3.5-20.1,10.1-75.9,11-87.3"/>
	<path class="st2" d="M179.8,38.3c0,0-161.5-66-154,84.1c1.6,31.9,45.8,241.7,98.5,178.3c19.3-23.2,36.7-41.3,36.7-41.3"/>
	<path class="st2" d="M267,26.2c-5.6,1.8,89.8-34.9,144.1,34.4c19.2,24.5-3,124.5-56.2,203.3"/>
	<path class="st3" d="M354.9,264c0,0,3.5,17,53.8,6.7c22-4.6,8.8,12.8-13.6,23.2c-18.3,8.5-59.5,10.7-60.1-1.1
		C333.2,262.3,356.6,271.6,354.9,264c-1.5-6.9-12-13.6-18.9-30.3c-6-14.6-82.8-126.8,21.3-110.2c3.8-0.8-27.1-99-124.6-100.6
		c-97.4-1.6-94.2,119.8-94.2,119.8"/>
	<path class="st2" d="M195.3,274.3c-13.6,15.2-9.6,17.8-36.7,23.4c-27.5,5.7-11.3,15.7-0.8,18.4c12.8,3.2,42.3,7.7,62.3-20.2
		c6.1-8.5,0-22.1-8.4-25.5C207.6,268.7,202.2,266.6,195.3,274.3L195.3,274.3z"/>
	<path class="st2" d="M194.4,274.1c-1.4-8.9,2.9-19.5,7.5-31.9c6.9-18.6,22.9-37.3,10.1-96.3c-9.5-44-73.4-9.2-73.4-3.2
		c0,6,2.9,30.3-1.1,58.5c-5.2,36.9,23.5,68.1,56.5,64.9"/>
	<path class="st4" d="M179.2,141.7c-0.3,2,3.7,7.5,9,8.2c5.2,0.7,9.7-3.5,10-5.6c0.3-2-3.7-4.3-9-5
		C183.9,138.6,179.4,139.7,179.2,141.7L179.2,141.7z"/>
	<path class="st5" d="M338.6,137.5c0.3,2-3.7,7.5-9,8.2c-5.2,0.7-9.7-3.5-10-5.6c-0.3-2,3.7-4.3,9-5S338.3,135.5,338.6,137.5
		L338.6,137.5z"/>
	<path class="st2" d="M357.3,123.4c0.9,16-3.4,26.9-4,43.9c-0.8,24.7,11.8,53.1-7.2,81.4"/>
	<path class="st6" d="M6.7,60.2"/>
</g>
</svg>
