<?xml version="1.0" encoding="utf-8"?>
<!-- Generator: Adobe Illustrator 23.0.0, SVG Export Plug-In . SVG Version: 6.00 Build 0)  -->
<svg version="1.1" id="Calque_1" xmlns="http://www.w3.org/2000/svg" xmlns:xlink="http://www.w3.org/1999/xlink" x="0px" y="0px"
	 viewBox="0 0 14 11" style="enable-background:new 0 0 14 11;" xml:space="preserve">
<path class="st0" d="M14,1.3c-0.5,0.2-1.1,0.4-1.6,0.4c0.6-0.3,1.1-0.9,1.3-1.5c-0.6,0.3-1.2,0.6-1.8,0.7C11.3,0.3,10.5,0,9.7,0
	C8.1,0,6.8,1.2,6.8,2.8c0,0.2,0,0.4,0.1,0.6C4.5,3.3,2.4,2.2,1,0.5C0.7,0.9,0.6,1.4,0.6,1.9c0,1,0.5,1.8,1.3,2.3
	c-0.5,0-0.9-0.1-1.3-0.3v0c0,1.3,1,2.5,2.3,2.7C2.6,6.7,2.4,6.7,2.1,6.7c-0.2,0-0.4,0-0.5-0.1C1.9,7.8,3,8.6,4.3,8.6
	C3.3,9.3,2,9.8,0.7,9.8c-0.2,0-0.5,0-0.7,0C1.3,10.5,2.8,11,4.4,11c5.3,0,8.2-4.2,8.2-7.9c0-0.1,0-0.2,0-0.4
	C13.1,2.3,13.6,1.9,14,1.3z"/>
</svg>
