<?xml version="1.0" encoding="utf-8"?>
<!-- Generator: Adobe Illustrator 23.0.0, SVG Export Plug-In . SVG Version: 6.00 Build 0)  -->
<svg version="1.1" id="Calque_1" xmlns="http://www.w3.org/2000/svg" xmlns:xlink="http://www.w3.org/1999/xlink" x="0px" y="0px"
	 viewBox="0 0 22.2 18" style="enable-background:new 0 0 22.2 18;" xml:space="preserve">
<path class="st0" d="M22.2,2.1c-0.8,0.4-1.7,0.6-2.6,0.7c0.9-0.6,1.7-1.5,2-2.5c-0.9,0.5-1.8,0.9-2.9,1.1c-0.8-0.9-2-1.4-3.3-1.4
	c-2.5,0-4.6,2-4.6,4.5c0,0.4,0,0.7,0.1,1C7.2,5.4,3.8,3.6,1.6,0.8C1.2,1.5,1,2.3,1,3.1c0,1.6,0.8,3,2,3.8c-0.8,0-1.5-0.2-2.1-0.6
	v0.1c0,2.2,1.6,4,3.6,4.5c-0.3,0-0.7,0.1-1.1,0.1c-0.3,0-0.6,0-0.9-0.1c0.6,1.8,2.3,3.1,4.3,3.2C5.2,15.3,3.3,16,1.1,16
	c-0.4,0-0.7,0-1.1-0.1C2,17.2,4.4,18,6.9,18c8.4,0,12.9-6.9,12.9-12.9c0-0.2,0-0.4,0-0.6C20.8,3.8,21.6,3,22.2,2.1z"/>
</svg>
