<svg viewBox="0 0 14 11" fill="none" xmlns="http://www.w3.org/2000/svg">
<path d="M14 1.30339C13.4838 1.52396 12.932 1.67292 12.3505 1.74167C12.9438 1.39792 13.4007 0.853646 13.6143 0.20625C13.0595 0.524219 12.4454 0.75625 11.7898 0.879427C11.2647 0.338021 10.5171 0 9.69231 0C8.10511 0 6.82051 1.24323 6.82051 2.77578C6.82051 2.99349 6.84425 3.20547 6.89468 3.40885C4.50646 3.29427 2.38822 2.18854 0.973088 0.507031C0.726849 0.916667 0.584446 1.39505 0.584446 1.90208C0.584446 2.86458 1.09472 3.71536 1.86607 4.2138C1.3914 4.20234 0.946387 4.0763 0.560712 3.86719V3.90156C0.560712 5.24792 1.5516 6.36797 2.86586 6.62292C2.62556 6.68594 2.37042 6.72031 2.10935 6.72031C1.92541 6.72031 1.74444 6.70312 1.5694 6.66875C1.93431 7.77161 2.9964 8.5737 4.25429 8.59661C3.2723 9.34141 2.03221 9.78542 0.685315 9.78542C0.45391 9.78542 0.225471 9.77109 0 9.74531C1.26679 10.5417 2.77686 11 4.39669 11C9.68637 11 12.576 6.76901 12.576 3.09948C12.576 2.97917 12.573 2.85885 12.5671 2.74141C13.1278 2.34896 13.6143 1.86198 14 1.30339Z" fill="#A5A093"/>
</svg>
